<?xml version="1.0" encoding="UTF-8" standalone="no"?>
<svg
   xmlns:dc="http://purl.org/dc/elements/1.1/"
   xmlns:cc="http://creativecommons.org/ns#"
   xmlns:rdf="http://www.w3.org/1999/02/22-rdf-syntax-ns#"
   xmlns:svg="http://www.w3.org/2000/svg"
   xmlns="http://www.w3.org/2000/svg"
   xmlns:sodipodi="http://sodipodi.sourceforge.net/DTD/sodipodi-0.dtd"
   xmlns:inkscape="http://www.inkscape.org/namespaces/inkscape"
   class="svglite"
   width="864.00pt"
   height="432.00pt"
   viewBox="0 0 864.00 432.00"
   id="svg2"
   version="1.1"
   inkscape:version="0.91 r13725"
   sodipodi:docname="taxa_sig_bar_fig.svg"
   inkscape:export-filename="/Users/bjcresswell/OneDrive - James Cook University/Ben PhD/Data &amp; analysis/KimbePreds/output/rfigures/taxa_sig_bar_fig.png"
   inkscape:export-xdpi="90"
   inkscape:export-ydpi="90">
  <metadata
     id="metadata503">
    <rdf:RDF>
      <cc:Work
         rdf:about="">
        <dc:format>image/svg+xml</dc:format>
        <dc:type
           rdf:resource="http://purl.org/dc/dcmitype/StillImage" />
      </cc:Work>
    </rdf:RDF>
  </metadata>
  <sodipodi:namedview
     pagecolor="#ffffff"
     bordercolor="#666666"
     borderopacity="1"
     objecttolerance="10"
     gridtolerance="10"
     guidetolerance="10"
     inkscape:pageopacity="0"
     inkscape:pageshadow="2"
     inkscape:window-width="1903"
     inkscape:window-height="1018"
     id="namedview501"
     showgrid="false"
     inkscape:zoom="1"
     inkscape:cx="580.30645"
     inkscape:cy="205.67742"
     inkscape:window-x="0"
     inkscape:window-y="0"
     inkscape:window-maximized="0"
     inkscape:current-layer="svg2" />
  <defs
     id="defs4">
    <style
       type="text/css"
       id="style6"><![CDATA[
    .svglite line, .svglite polyline, .svglite polygon, .svglite path, .svglite rect, .svglite circle {
      fill: none;
      stroke: #000000;
      stroke-linecap: round;
      stroke-linejoin: round;
      stroke-miterlimit: 10.00;
    }
  ]]></style>
  </defs>
  <rect
     width="100%"
     height="100%"
     style="stroke: none; fill: #FFFFFF;"
     id="rect8" />
  <defs
     id="defs10">
    <clipPath
       id="cpMC4wMHw4NjQuMDB8MC4wMHw0MzIuMDA=">
      <rect
         x="0.00"
         y="0.00"
         width="864.00"
         height="432.00"
         id="rect13" />
    </clipPath>
  </defs>
  <g
     clip-path="url(#cpMC4wMHw4NjQuMDB8MC4wMHw0MzIuMDA=)"
     id="g15">
    <rect
       x="0.00"
       y="0.00"
       width="864.00"
       height="432.00"
       style="stroke-width: 1.07; stroke: #FFFFFF; fill: #FFFFFF;"
       id="rect17" />
  </g>
  <defs
     id="defs19">
    <clipPath
       id="cpMzguNjJ8Mjk2LjY0fDI3LjIxfDE5My40Nw==">
      <rect
         x="38.62"
         y="27.21"
         width="258.02"
         height="166.25"
         id="rect22" />
    </clipPath>
  </defs>
  <rect
     id="rect26"
     style="fill:#ffffff;stroke:none;stroke-width:1.07000005;stroke-linecap:round;stroke-linejoin:round;stroke-miterlimit:10"
     height="166.25"
     width="258.01999"
     y="27.209999"
     x="38.619999" />
  <rect
     id="rect28"
     style="fill:#35978f;stroke:#000000;stroke-width:1.07000005;stroke-linecap:square;stroke-linejoin:miter;stroke-miterlimit:10"
     height="87.720001"
     width="64.510002"
     y="98.190002"
     x="54.75" />
  <rect
     id="rect30"
     style="fill:#436eee;stroke:#000000;stroke-width:1.07000005;stroke-linecap:square;stroke-linejoin:miter;stroke-miterlimit:10"
     height="0"
     width="64.510002"
     y="185.91"
     x="135.38" />
  <rect
     id="rect32"
     style="fill:#dfc27d;stroke:#000000;stroke-width:1.07000005;stroke-linecap:square;stroke-linejoin:miter;stroke-miterlimit:10"
     height="0"
     width="64.510002"
     y="185.91"
     x="216.00999" />
  <polyline
     id="polyline34"
     style="fill:none;stroke:#000000;stroke-width:1.07000005;stroke-linecap:butt;stroke-linejoin:round;stroke-miterlimit:10"
     points="78.94,34.77 95.07,34.77 " />
  <polyline
     id="polyline36"
     style="fill:none;stroke:#000000;stroke-width:1.07000005;stroke-linecap:butt;stroke-linejoin:round;stroke-miterlimit:10"
     points="87.00,34.77 87.00,98.19 " />
  <polyline
     id="polyline38"
     style="fill:none;stroke:#000000;stroke-width:1.07000005;stroke-linecap:butt;stroke-linejoin:round;stroke-miterlimit:10"
     points="78.94,98.19 95.07,98.19 " />
  <polyline
     id="polyline40"
     style="fill:none;stroke:#000000;stroke-width:1.07000005;stroke-linecap:butt;stroke-linejoin:round;stroke-miterlimit:10"
     points="159.57,185.91 175.70,185.91 " />
  <polyline
     id="polyline42"
     style="fill:none;stroke:#000000;stroke-width:1.07000005;stroke-linecap:butt;stroke-linejoin:round;stroke-miterlimit:10"
     points="167.63,185.91 167.63,185.91 " />
  <polyline
     id="polyline44"
     style="fill:none;stroke:#000000;stroke-width:1.07000005;stroke-linecap:butt;stroke-linejoin:round;stroke-miterlimit:10"
     points="159.57,185.91 175.70,185.91 " />
  <polyline
     id="polyline46"
     style="fill:none;stroke:#000000;stroke-width:1.07000005;stroke-linecap:butt;stroke-linejoin:round;stroke-miterlimit:10"
     points="240.20,185.91 256.33,185.91 " />
  <polyline
     id="polyline48"
     style="fill:none;stroke:#000000;stroke-width:1.07000005;stroke-linecap:butt;stroke-linejoin:round;stroke-miterlimit:10"
     points="248.27,185.91 248.27,185.91 " />
  <polyline
     id="polyline50"
     style="fill:none;stroke:#000000;stroke-width:1.07000005;stroke-linecap:butt;stroke-linejoin:round;stroke-miterlimit:10"
     points="240.20,185.91 256.33,185.91 " />
  <g
     clip-path="url(#cpMC4wMHw4NjQuMDB8MC4wMHw0MzIuMDA=)"
     id="g52" />
  <defs
     id="defs54">
    <clipPath
       id="cpMzguNjJ8Mjk2LjY0fDIzMy45NHw0MDAuMTk=">
      <rect
         x="38.62"
         y="233.94"
         width="258.02"
         height="166.25"
         id="rect57" />
    </clipPath>
  </defs>
  <g
     clip-path="url(#cpMzguNjJ8Mjk2LjY0fDIzMy45NHw0MDAuMTk=)"
     id="g59">
    <rect
       x="38.62"
       y="233.94"
       width="258.02"
       height="166.25"
       style="stroke-width: 1.07; stroke: none; fill: #FFFFFF;"
       id="rect61" />
    <rect
       x="54.75"
       y="282.04"
       width="64.51"
       height="110.60"
       style="stroke-width: 1.07; stroke-linecap: square; stroke-linejoin: miter; fill: #35978F;"
       id="rect63" />
    <rect
       x="135.38"
       y="373.92"
       width="64.51"
       height="18.72"
       style="stroke-width: 1.07; stroke-linecap: square; stroke-linejoin: miter; fill: #436EEE;"
       id="rect65" />
    <rect
       x="216.01"
       y="382.43"
       width="64.51"
       height="10.21"
       style="stroke-width: 1.07; stroke-linecap: square; stroke-linejoin: miter; fill: #DFC27D;"
       id="rect67" />
    <polyline
       points="78.94,241.50 95.07,241.50 "
       style="stroke-width: 1.07; stroke-linecap: butt;"
       id="polyline69" />
    <polyline
       points="87.00,241.50 87.00,282.04 "
       style="stroke-width: 1.07; stroke-linecap: butt;"
       id="polyline71" />
    <polyline
       points="78.94,282.04 95.07,282.04 "
       style="stroke-width: 1.07; stroke-linecap: butt;"
       id="polyline73" />
    <polyline
       points="159.57,364.81 175.70,364.81 "
       style="stroke-width: 1.07; stroke-linecap: butt;"
       id="polyline75" />
    <polyline
       points="167.63,364.81 167.63,373.92 "
       style="stroke-width: 1.07; stroke-linecap: butt;"
       id="polyline77" />
    <polyline
       points="159.57,373.92 175.70,373.92 "
       style="stroke-width: 1.07; stroke-linecap: butt;"
       id="polyline79" />
    <polyline
       points="240.20,377.84 256.33,377.84 "
       style="stroke-width: 1.07; stroke-linecap: butt;"
       id="polyline81" />
    <polyline
       points="248.27,377.84 248.27,382.43 "
       style="stroke-width: 1.07; stroke-linecap: butt;"
       id="polyline83" />
    <polyline
       points="240.20,382.43 256.33,382.43 "
       style="stroke-width: 1.07; stroke-linecap: butt;"
       id="polyline85" />
  </g>
  <g
     clip-path="url(#cpMC4wMHw4NjQuMDB8MC4wMHw0MzIuMDA=)"
     id="g87" />
  <defs
     id="defs89">
    <clipPath
       id="cpMzE5LjU2fDU3Ny41OHwyNy4yMXwxOTMuNDc=">
      <rect
         x="319.56"
         y="27.21"
         width="258.02"
         height="166.25"
         id="rect92" />
    </clipPath>
  </defs>
  <g
     clip-path="url(#cpMzE5LjU2fDU3Ny41OHwyNy4yMXwxOTMuNDc=)"
     id="g94">
    <rect
       x="319.56"
       y="27.21"
       width="258.02"
       height="166.25"
       style="stroke-width: 1.07; stroke: none; fill: #FFFFFF;"
       id="rect96" />
    <rect
       x="335.69"
       y="82.65"
       width="64.51"
       height="103.26"
       style="stroke-width: 1.07; stroke-linecap: square; stroke-linejoin: miter; fill: #35978F;"
       id="rect98" />
    <rect
       x="416.32"
       y="185.91"
       width="64.51"
       height="0.00"
       style="stroke-width: 1.07; stroke-linecap: square; stroke-linejoin: miter; fill: #436EEE;"
       id="rect100" />
    <rect
       x="496.95"
       y="185.91"
       width="64.51"
       height="0.00"
       style="stroke-width: 1.07; stroke-linecap: square; stroke-linejoin: miter; fill: #DFC27D;"
       id="rect102" />
    <polyline
       points="359.88,34.77 376.00,34.77 "
       style="stroke-width: 1.07; stroke-linecap: butt;"
       id="polyline104" />
    <polyline
       points="367.94,34.77 367.94,82.65 "
       style="stroke-width: 1.07; stroke-linecap: butt;"
       id="polyline106" />
    <polyline
       points="359.88,82.65 376.00,82.65 "
       style="stroke-width: 1.07; stroke-linecap: butt;"
       id="polyline108" />
    <polyline
       points="440.51,185.91 456.64,185.91 "
       style="stroke-width: 1.07; stroke-linecap: butt;"
       id="polyline110" />
    <polyline
       points="448.57,185.91 448.57,185.91 "
       style="stroke-width: 1.07; stroke-linecap: butt;"
       id="polyline112" />
    <polyline
       points="440.51,185.91 456.64,185.91 "
       style="stroke-width: 1.07; stroke-linecap: butt;"
       id="polyline114" />
    <polyline
       points="521.14,185.91 537.27,185.91 "
       style="stroke-width: 1.07; stroke-linecap: butt;"
       id="polyline116" />
    <polyline
       points="529.20,185.91 529.20,185.91 "
       style="stroke-width: 1.07; stroke-linecap: butt;"
       id="polyline118" />
    <polyline
       points="521.14,185.91 537.27,185.91 "
       style="stroke-width: 1.07; stroke-linecap: butt;"
       id="polyline120" />
  </g>
  <g
     clip-path="url(#cpMC4wMHw4NjQuMDB8MC4wMHw0MzIuMDA=)"
     id="g122" />
  <defs
     id="defs124">
    <clipPath
       id="cpMzE5LjU2fDU3Ny41OHwyMzMuOTR8NDAwLjE5">
      <rect
         x="319.56"
         y="233.94"
         width="258.02"
         height="166.25"
         id="rect127" />
    </clipPath>
  </defs>
  <rect
     id="rect131"
     style="fill:#ffffff;stroke:none;stroke-width:1.07000005;stroke-linecap:round;stroke-linejoin:round;stroke-miterlimit:10"
     height="166.25"
     width="258.01999"
     y="233.94"
     x="319.56" />
  <rect
     id="rect133"
     style="fill:#35978f;stroke:#000000;stroke-width:1.07000005;stroke-linecap:square;stroke-linejoin:miter;stroke-miterlimit:10"
     height="117.56"
     width="64.510002"
     y="275.07999"
     x="335.69" />
  <rect
     id="rect135"
     style="fill:#436eee;stroke:#000000;stroke-width:1.07000005;stroke-linecap:square;stroke-linejoin:miter;stroke-miterlimit:10"
     height="0"
     width="64.510002"
     y="392.64001"
     x="416.32001" />
  <rect
     id="rect137"
     style="fill:#dfc27d;stroke:#000000;stroke-width:1.07000005;stroke-linecap:square;stroke-linejoin:miter;stroke-miterlimit:10"
     height="0"
     width="64.510002"
     y="392.64001"
     x="496.95001" />
  <polyline
     id="polyline139"
     style="fill:none;stroke:#000000;stroke-width:1.07000005;stroke-linecap:butt;stroke-linejoin:round;stroke-miterlimit:10"
     points="359.88,241.50 376.00,241.50 " />
  <polyline
     id="polyline141"
     style="fill:none;stroke:#000000;stroke-width:1.07000005;stroke-linecap:butt;stroke-linejoin:round;stroke-miterlimit:10"
     points="367.94,241.50 367.94,275.08 " />
  <polyline
     id="polyline143"
     style="fill:none;stroke:#000000;stroke-width:1.07000005;stroke-linecap:butt;stroke-linejoin:round;stroke-miterlimit:10"
     points="359.88,275.08 376.00,275.08 " />
  <polyline
     id="polyline145"
     style="fill:none;stroke:#000000;stroke-width:1.07000005;stroke-linecap:butt;stroke-linejoin:round;stroke-miterlimit:10"
     points="440.51,392.64 456.64,392.64 " />
  <polyline
     id="polyline147"
     style="fill:none;stroke:#000000;stroke-width:1.07000005;stroke-linecap:butt;stroke-linejoin:round;stroke-miterlimit:10"
     points="448.57,392.64 448.57,392.64 " />
  <polyline
     id="polyline149"
     style="fill:none;stroke:#000000;stroke-width:1.07000005;stroke-linecap:butt;stroke-linejoin:round;stroke-miterlimit:10"
     points="440.51,392.64 456.64,392.64 " />
  <polyline
     id="polyline151"
     style="fill:none;stroke:#000000;stroke-width:1.07000005;stroke-linecap:butt;stroke-linejoin:round;stroke-miterlimit:10"
     points="521.14,392.64 537.27,392.64 " />
  <polyline
     id="polyline153"
     style="fill:none;stroke:#000000;stroke-width:1.07000005;stroke-linecap:butt;stroke-linejoin:round;stroke-miterlimit:10"
     points="529.20,392.64 529.20,392.64 " />
  <polyline
     id="polyline155"
     style="fill:none;stroke:#000000;stroke-width:1.07000005;stroke-linecap:butt;stroke-linejoin:round;stroke-miterlimit:10"
     points="521.14,392.64 537.27,392.64 " />
  <g
     clip-path="url(#cpMC4wMHw4NjQuMDB8MC4wMHw0MzIuMDA=)"
     id="g157" />
  <defs
     id="defs159">
    <clipPath
       id="cpNjAwLjUwfDg1OC41MnwyNy4yMXwxOTMuNDc=">
      <rect
         x="600.50"
         y="27.21"
         width="258.02"
         height="166.25"
         id="rect162" />
    </clipPath>
  </defs>
  <g
     clip-path="url(#cpNjAwLjUwfDg1OC41MnwyNy4yMXwxOTMuNDc=)"
     id="g164">
    <rect
       x="600.50"
       y="27.21"
       width="258.02"
       height="166.25"
       style="stroke-width: 1.07; stroke: none; fill: #FFFFFF;"
       id="rect166" />
    <rect
       x="616.63"
       y="74.04"
       width="64.51"
       height="111.87"
       style="stroke-width: 1.07; stroke-linecap: square; stroke-linejoin: miter; fill: #35978F;"
       id="rect168" />
    <rect
       x="697.26"
       y="157.51"
       width="64.51"
       height="28.40"
       style="stroke-width: 1.07; stroke-linecap: square; stroke-linejoin: miter; fill: #436EEE;"
       id="rect170" />
    <rect
       x="777.89"
       y="184.75"
       width="64.51"
       height="1.16"
       style="stroke-width: 1.07; stroke-linecap: square; stroke-linejoin: miter; fill: #DFC27D;"
       id="rect172" />
    <polyline
       points="640.82,34.77 656.94,34.77 "
       style="stroke-width: 1.07; stroke-linecap: butt;"
       id="polyline174" />
    <polyline
       points="648.88,34.77 648.88,74.04 "
       style="stroke-width: 1.07; stroke-linecap: butt;"
       id="polyline176" />
    <polyline
       points="640.82,74.04 656.94,74.04 "
       style="stroke-width: 1.07; stroke-linecap: butt;"
       id="polyline178" />
    <polyline
       points="721.45,150.01 737.57,150.01 "
       style="stroke-width: 1.07; stroke-linecap: butt;"
       id="polyline180" />
    <polyline
       points="729.51,150.01 729.51,157.51 "
       style="stroke-width: 1.07; stroke-linecap: butt;"
       id="polyline182" />
    <polyline
       points="721.45,157.51 737.57,157.51 "
       style="stroke-width: 1.07; stroke-linecap: butt;"
       id="polyline184" />
    <polyline
       points="802.08,183.94 818.20,183.94 "
       style="stroke-width: 1.07; stroke-linecap: butt;"
       id="polyline186" />
    <polyline
       points="810.14,183.94 810.14,184.75 "
       style="stroke-width: 1.07; stroke-linecap: butt;"
       id="polyline188" />
    <polyline
       points="802.08,184.75 818.20,184.75 "
       style="stroke-width: 1.07; stroke-linecap: butt;"
       id="polyline190" />
  </g>
  <g
     clip-path="url(#cpMC4wMHw4NjQuMDB8MC4wMHw0MzIuMDA=)"
     id="g192" />
  <defs
     id="defs194">
    <clipPath
       id="cpNjAwLjUwfDg1OC41MnwyMzMuOTR8NDAwLjE5">
      <rect
         x="600.50"
         y="233.94"
         width="258.02"
         height="166.25"
         id="rect197" />
    </clipPath>
  </defs>
  <g
     clip-path="url(#cpNjAwLjUwfDg1OC41MnwyMzMuOTR8NDAwLjE5)"
     id="g199">
    <rect
       x="600.50"
       y="233.94"
       width="258.02"
       height="166.25"
       style="stroke-width: 1.07; stroke: none; fill: #FFFFFF;"
       id="rect201" />
    <rect
       x="616.63"
       y="280.97"
       width="64.51"
       height="111.67"
       style="stroke-width: 1.07; stroke-linecap: square; stroke-linejoin: miter; fill: #35978F;"
       id="rect203" />
    <rect
       x="697.26"
       y="316.23"
       width="64.51"
       height="76.40"
       style="stroke-width: 1.07; stroke-linecap: square; stroke-linejoin: miter; fill: #436EEE;"
       id="rect205" />
    <rect
       x="777.89"
       y="392.64"
       width="64.51"
       height="0.00"
       style="stroke-width: 1.07; stroke-linecap: square; stroke-linejoin: miter; fill: #DFC27D;"
       id="rect207" />
    <polyline
       points="640.82,241.50 656.94,241.50 "
       style="stroke-width: 1.07; stroke-linecap: butt;"
       id="polyline209" />
    <polyline
       points="648.88,241.50 648.88,280.97 "
       style="stroke-width: 1.07; stroke-linecap: butt;"
       id="polyline211" />
    <polyline
       points="640.82,280.97 656.94,280.97 "
       style="stroke-width: 1.07; stroke-linecap: butt;"
       id="polyline213" />
    <polyline
       points="721.45,298.60 737.57,298.60 "
       style="stroke-width: 1.07; stroke-linecap: butt;"
       id="polyline215" />
    <polyline
       points="729.51,298.60 729.51,316.23 "
       style="stroke-width: 1.07; stroke-linecap: butt;"
       id="polyline217" />
    <polyline
       points="721.45,316.23 737.57,316.23 "
       style="stroke-width: 1.07; stroke-linecap: butt;"
       id="polyline219" />
    <polyline
       points="802.08,392.64 818.20,392.64 "
       style="stroke-width: 1.07; stroke-linecap: butt;"
       id="polyline221" />
    <polyline
       points="810.14,392.64 810.14,392.64 "
       style="stroke-width: 1.07; stroke-linecap: butt;"
       id="polyline223" />
    <polyline
       points="802.08,392.64 818.20,392.64 "
       style="stroke-width: 1.07; stroke-linecap: butt;"
       id="polyline225" />
  </g>
  <g
     clip-path="url(#cpMC4wMHw4NjQuMDB8MC4wMHw0MzIuMDA=)"
     id="g227" />
  <defs
     id="defs229">
    <clipPath
       id="cpMzguNjJ8Mjk2LjY0fDIxMi4yMXwyMzMuOTQ=">
      <rect
         x="38.62"
         y="212.21"
         width="258.02"
         height="21.73"
         id="rect232" />
    </clipPath>
  </defs>
  <g
     clip-path="url(#cpMzguNjJ8Mjk2LjY0fDIxMi4yMXwyMzMuOTQ=)"
     id="g234">
    <rect
       x="38.62"
       y="212.21"
       width="258.02"
       height="21.73"
       style="stroke-width: 3.20; stroke: #FFFFFF; fill: #FFFFFF;"
       id="rect236" />
    <text
       x="39.98"
       y="228.09"
       style="font-size: 14.00px; font-style: italic; font-family: Arial;"
       textLength="98.04px"
       lengthAdjust="spacingAndGlyphs"
       id="text238">Lutjanus gibbus</text>
  </g>
  <g
     clip-path="url(#cpMC4wMHw4NjQuMDB8MC4wMHw0MzIuMDA=)"
     id="g240" />
  <defs
     id="defs242">
    <clipPath
       id="cpMzE5LjU2fDU3Ny41OHwyMTIuMjF8MjMzLjk0">
      <rect
         x="319.56"
         y="212.21"
         width="258.02"
         height="21.73"
         id="rect245" />
    </clipPath>
  </defs>
  <g
     clip-path="url(#cpMzE5LjU2fDU3Ny41OHwyMTIuMjF8MjMzLjk0)"
     id="g247">
    <rect
       x="319.56"
       y="212.21"
       width="258.02"
       height="21.73"
       style="stroke-width: 3.20; stroke: #FFFFFF; fill: #FFFFFF;"
       id="rect249" />
    <text
       x="321.53"
       y="228.09"
       style="font-size: 14.00px; font-style: italic; font-family: Arial;"
       textLength="128.34px"
       lengthAdjust="spacingAndGlyphs"
       id="text251">Caranx melampygus</text>
  </g>
  <g
     clip-path="url(#cpMC4wMHw4NjQuMDB8MC4wMHw0MzIuMDA=)"
     id="g253" />
  <defs
     id="defs255">
    <clipPath
       id="cpNjAwLjUwfDg1OC41MnwyMTIuMjF8MjMzLjk0">
      <rect
         x="600.50"
         y="212.21"
         width="258.02"
         height="21.73"
         id="rect258" />
    </clipPath>
  </defs>
  <g
     clip-path="url(#cpNjAwLjUwfDg1OC41MnwyMTIuMjF8MjMzLjk0)"
     id="g260">
    <rect
       x="600.50"
       y="212.21"
       width="258.02"
       height="21.73"
       style="stroke-width: 3.20; stroke: #FFFFFF; fill: #FFFFFF;"
       id="rect262" />
    <text
       x="603.32"
       y="228.09"
       style="font-size: 14.00px; font-style: italic; font-family: Arial;"
       textLength="171.16px"
       lengthAdjust="spacingAndGlyphs"
       id="text264">Cephalopholis cyanostigma</text>
  </g>
  <g
     clip-path="url(#cpMC4wMHw4NjQuMDB8MC4wMHw0MzIuMDA=)"
     id="g266" />
  <defs
     id="defs268">
    <clipPath
       id="cpMzguNjJ8Mjk2LjY0fDUuNDh8MjcuMjE=">
      <rect
         x="38.62"
         y="5.48"
         width="258.02"
         height="21.73"
         id="rect271" />
    </clipPath>
  </defs>
  <g
     clip-path="url(#cpMzguNjJ8Mjk2LjY0fDUuNDh8MjcuMjE=)"
     id="g273">
    <rect
       x="38.62"
       y="5.48"
       width="258.02"
       height="21.73"
       style="stroke-width: 3.20; stroke: #FFFFFF; fill: #FFFFFF;"
       id="rect275" />
    <text
       x="40.14"
       y="21.36"
       style="font-size: 14.00px; font-style: italic; font-family: Arial;"
       textLength="105.83px"
       lengthAdjust="spacingAndGlyphs"
       id="text277">Sphyraena qenie</text>
  </g>
  <g
     clip-path="url(#cpMC4wMHw4NjQuMDB8MC4wMHw0MzIuMDA=)"
     id="g279" />
  <defs
     id="defs281">
    <clipPath
       id="cpMzE5LjU2fDU3Ny41OHw1LjQ4fDI3LjIx">
      <rect
         x="319.56"
         y="5.48"
         width="258.02"
         height="21.73"
         id="rect284" />
    </clipPath>
  </defs>
  <g
     clip-path="url(#cpMzE5LjU2fDU3Ny41OHw1LjQ4fDI3LjIx)"
     id="g286">
    <rect
       x="319.56"
       y="5.48"
       width="258.02"
       height="21.73"
       style="stroke-width: 3.20; stroke: #FFFFFF; fill: #FFFFFF;"
       id="rect288" />
    <text
       x="321.48"
       y="21.36"
       style="font-size: 14.00px; font-style: italic; font-family: Arial;"
       textLength="126.01px"
       lengthAdjust="spacingAndGlyphs"
       id="text290">Caranx sexfasciatus</text>
  </g>
  <g
     clip-path="url(#cpMC4wMHw4NjQuMDB8MC4wMHw0MzIuMDA=)"
     id="g292" />
  <defs
     id="defs294">
    <clipPath
       id="cpNjAwLjUwfDg1OC41Mnw1LjQ4fDI3LjIx">
      <rect
         x="600.50"
         y="5.48"
         width="258.02"
         height="21.73"
         id="rect297" />
    </clipPath>
  </defs>
  <g
     clip-path="url(#cpNjAwLjUwfDg1OC41Mnw1LjQ4fDI3LjIx)"
     id="g299">
    <rect
       x="600.50"
       y="5.48"
       width="258.02"
       height="21.73"
       style="stroke-width: 3.20; stroke: #FFFFFF; fill: #FFFFFF;"
       id="rect301" />
    <text
       x="602.17"
       y="21.36"
       style="font-size: 14.00px; font-style: italic; font-family: Arial;"
       textLength="113.54px"
       lengthAdjust="spacingAndGlyphs"
       id="text303">Macolor macularis</text>
  </g>
  <g
     clip-path="url(#cpMC4wMHw4NjQuMDB8MC4wMHw0MzIuMDA=)"
     id="g305">
    <polyline
       points="38.62,400.19 296.64,400.19 "
       style="stroke-width: 1.07; stroke-linecap: butt;"
       id="polyline307" />
    <polyline
       points="87.00,402.93 87.00,400.19 "
       style="stroke-width: 1.07; stroke: #333333; stroke-linecap: butt;"
       id="polyline309" />
    <polyline
       points="167.63,402.93 167.63,400.19 "
       style="stroke-width: 1.07; stroke: #333333; stroke-linecap: butt;"
       id="polyline311" />
    <polyline
       points="248.27,402.93 248.27,400.19 "
       style="stroke-width: 1.07; stroke: #333333; stroke-linecap: butt;"
       id="polyline313" />
    <text
       x="87.00"
       y="411.57"
       text-anchor="middle"
       style="font-size: 9.00px; font-family: Arial;"
       textLength="34.52px"
       lengthAdjust="spacingAndGlyphs"
       id="text315">Pinnacle</text>
    <text
       x="167.63"
       y="411.57"
       text-anchor="middle"
       style="font-size: 9.00px; font-family: Arial;"
       textLength="34.34px"
       lengthAdjust="spacingAndGlyphs"
       id="text317">Offshore</text>
    <text
       x="248.27"
       y="411.57"
       text-anchor="middle"
       style="font-size: 9.00px; font-family: Arial;"
       textLength="42.01px"
       lengthAdjust="spacingAndGlyphs"
       id="text319">Nearshore</text>
    <polyline
       points="319.56,400.19 577.58,400.19 "
       style="stroke-width: 1.07; stroke-linecap: butt;"
       id="polyline321" />
    <polyline
       points="367.94,402.93 367.94,400.19 "
       style="stroke-width: 1.07; stroke: #333333; stroke-linecap: butt;"
       id="polyline323" />
    <polyline
       points="448.57,402.93 448.57,400.19 "
       style="stroke-width: 1.07; stroke: #333333; stroke-linecap: butt;"
       id="polyline325" />
    <polyline
       points="529.20,402.93 529.20,400.19 "
       style="stroke-width: 1.07; stroke: #333333; stroke-linecap: butt;"
       id="polyline327" />
    <text
       x="367.94"
       y="411.57"
       text-anchor="middle"
       style="font-size: 9.00px; font-family: Arial;"
       textLength="34.52px"
       lengthAdjust="spacingAndGlyphs"
       id="text329">Pinnacle</text>
    <text
       x="448.57"
       y="411.57"
       text-anchor="middle"
       style="font-size: 9.00px; font-family: Arial;"
       textLength="34.34px"
       lengthAdjust="spacingAndGlyphs"
       id="text331">Offshore</text>
    <text
       x="529.20"
       y="411.57"
       text-anchor="middle"
       style="font-size: 9.00px; font-family: Arial;"
       textLength="42.01px"
       lengthAdjust="spacingAndGlyphs"
       id="text333">Nearshore</text>
    <polyline
       points="600.50,400.19 858.52,400.19 "
       style="stroke-width: 1.07; stroke-linecap: butt;"
       id="polyline335" />
    <polyline
       points="648.88,402.93 648.88,400.19 "
       style="stroke-width: 1.07; stroke: #333333; stroke-linecap: butt;"
       id="polyline337" />
    <polyline
       points="729.51,402.93 729.51,400.19 "
       style="stroke-width: 1.07; stroke: #333333; stroke-linecap: butt;"
       id="polyline339" />
    <polyline
       points="810.14,402.93 810.14,400.19 "
       style="stroke-width: 1.07; stroke: #333333; stroke-linecap: butt;"
       id="polyline341" />
    <text
       x="648.88"
       y="411.57"
       text-anchor="middle"
       style="font-size: 9.00px; font-family: Arial;"
       textLength="34.52px"
       lengthAdjust="spacingAndGlyphs"
       id="text343">Pinnacle</text>
    <text
       x="729.51"
       y="411.57"
       text-anchor="middle"
       style="font-size: 9.00px; font-family: Arial;"
       textLength="34.34px"
       lengthAdjust="spacingAndGlyphs"
       id="text345">Offshore</text>
    <text
       x="810.14"
       y="411.57"
       text-anchor="middle"
       style="font-size: 9.00px; font-family: Arial;"
       textLength="42.01px"
       lengthAdjust="spacingAndGlyphs"
       id="text347">Nearshore</text>
    <polyline
       points="38.62,193.47 296.64,193.47 "
       style="stroke-width: 1.07; stroke-linecap: butt;"
       id="polyline349" />
    <polyline
       points="87.00,196.21 87.00,193.47 "
       style="stroke-width: 1.07; stroke: #333333; stroke-linecap: butt;"
       id="polyline351" />
    <polyline
       points="167.63,196.21 167.63,193.47 "
       style="stroke-width: 1.07; stroke: #333333; stroke-linecap: butt;"
       id="polyline353" />
    <polyline
       points="248.27,196.21 248.27,193.47 "
       style="stroke-width: 1.07; stroke: #333333; stroke-linecap: butt;"
       id="polyline355" />
    <text
       x="87.00"
       y="204.84"
       text-anchor="middle"
       style="font-size: 9.00px; font-family: Arial;"
       textLength="34.52px"
       lengthAdjust="spacingAndGlyphs"
       id="text357">Pinnacle</text>
    <text
       x="167.63"
       y="204.84"
       text-anchor="middle"
       style="font-size: 9.00px; font-family: Arial;"
       textLength="34.34px"
       lengthAdjust="spacingAndGlyphs"
       id="text359">Offshore</text>
    <text
       x="248.27"
       y="204.84"
       text-anchor="middle"
       style="font-size: 9.00px; font-family: Arial;"
       textLength="42.01px"
       lengthAdjust="spacingAndGlyphs"
       id="text361">Nearshore</text>
    <polyline
       points="319.56,193.47 577.58,193.47 "
       style="stroke-width: 1.07; stroke-linecap: butt;"
       id="polyline363" />
    <polyline
       points="367.94,196.21 367.94,193.47 "
       style="stroke-width: 1.07; stroke: #333333; stroke-linecap: butt;"
       id="polyline365" />
    <polyline
       points="448.57,196.21 448.57,193.47 "
       style="stroke-width: 1.07; stroke: #333333; stroke-linecap: butt;"
       id="polyline367" />
    <polyline
       points="529.20,196.21 529.20,193.47 "
       style="stroke-width: 1.07; stroke: #333333; stroke-linecap: butt;"
       id="polyline369" />
    <text
       x="367.94"
       y="204.84"
       text-anchor="middle"
       style="font-size: 9.00px; font-family: Arial;"
       textLength="34.52px"
       lengthAdjust="spacingAndGlyphs"
       id="text371">Pinnacle</text>
    <text
       x="448.57"
       y="204.84"
       text-anchor="middle"
       style="font-size: 9.00px; font-family: Arial;"
       textLength="34.34px"
       lengthAdjust="spacingAndGlyphs"
       id="text373">Offshore</text>
    <text
       x="529.20"
       y="204.84"
       text-anchor="middle"
       style="font-size: 9.00px; font-family: Arial;"
       textLength="42.01px"
       lengthAdjust="spacingAndGlyphs"
       id="text375">Nearshore</text>
    <polyline
       points="600.50,193.47 858.52,193.47 "
       style="stroke-width: 1.07; stroke-linecap: butt;"
       id="polyline377" />
    <polyline
       points="648.88,196.21 648.88,193.47 "
       style="stroke-width: 1.07; stroke: #333333; stroke-linecap: butt;"
       id="polyline379" />
    <polyline
       points="729.51,196.21 729.51,193.47 "
       style="stroke-width: 1.07; stroke: #333333; stroke-linecap: butt;"
       id="polyline381" />
    <polyline
       points="810.14,196.21 810.14,193.47 "
       style="stroke-width: 1.07; stroke: #333333; stroke-linecap: butt;"
       id="polyline383" />
    <text
       x="648.88"
       y="204.84"
       text-anchor="middle"
       style="font-size: 9.00px; font-family: Arial;"
       textLength="34.52px"
       lengthAdjust="spacingAndGlyphs"
       id="text385">Pinnacle</text>
    <text
       x="729.51"
       y="204.84"
       text-anchor="middle"
       style="font-size: 9.00px; font-family: Arial;"
       textLength="34.34px"
       lengthAdjust="spacingAndGlyphs"
       id="text387">Offshore</text>
    <text
       x="810.14"
       y="204.84"
       text-anchor="middle"
       style="font-size: 9.00px; font-family: Arial;"
       textLength="42.01px"
       lengthAdjust="spacingAndGlyphs"
       id="text389">Nearshore</text>
    <polyline
       points="600.50,193.47 600.50,27.21 "
       style="stroke-width: 1.07; stroke-linecap: butt;"
       id="polyline391" />
    <text
       x="595.57"
       y="189.13"
       text-anchor="end"
       style="font-size: 9.00px; font-family: Arial;"
       textLength="5.00px"
       lengthAdjust="spacingAndGlyphs"
       id="text393">0</text>
    <text
       x="595.57"
       y="142.76"
       text-anchor="end"
       style="font-size: 9.00px; font-family: Arial;"
       textLength="5.00px"
       lengthAdjust="spacingAndGlyphs"
       id="text395">2</text>
    <text
       x="595.57"
       y="96.39"
       text-anchor="end"
       style="font-size: 9.00px; font-family: Arial;"
       textLength="5.00px"
       lengthAdjust="spacingAndGlyphs"
       id="text397">4</text>
    <text
       x="595.57"
       y="50.02"
       text-anchor="end"
       style="font-size: 9.00px; font-family: Arial;"
       textLength="5.00px"
       lengthAdjust="spacingAndGlyphs"
       id="text399">6</text>
    <polyline
       points="597.76,185.91 600.50,185.91 "
       style="stroke-width: 1.07; stroke: #333333; stroke-linecap: butt;"
       id="polyline401" />
    <polyline
       points="597.76,139.54 600.50,139.54 "
       style="stroke-width: 1.07; stroke: #333333; stroke-linecap: butt;"
       id="polyline403" />
    <polyline
       points="597.76,93.17 600.50,93.17 "
       style="stroke-width: 1.07; stroke: #333333; stroke-linecap: butt;"
       id="polyline405" />
    <polyline
       points="597.76,46.80 600.50,46.80 "
       style="stroke-width: 1.07; stroke: #333333; stroke-linecap: butt;"
       id="polyline407" />
    <polyline
       points="600.50,400.19 600.50,233.94 "
       style="stroke-width: 1.07; stroke-linecap: butt;"
       id="polyline409" />
    <text
       x="595.57"
       y="395.86"
       text-anchor="end"
       style="font-size: 9.00px; font-family: Arial;"
       textLength="12.51px"
       lengthAdjust="spacingAndGlyphs"
       id="text411">0.0</text>
    <text
       x="595.57"
       y="348.84"
       text-anchor="end"
       style="font-size: 9.00px; font-family: Arial;"
       textLength="12.51px"
       lengthAdjust="spacingAndGlyphs"
       id="text413">0.2</text>
    <text
       x="595.57"
       y="301.82"
       text-anchor="end"
       style="font-size: 9.00px; font-family: Arial;"
       textLength="12.51px"
       lengthAdjust="spacingAndGlyphs"
       id="text415">0.4</text>
    <text
       x="595.57"
       y="254.81"
       text-anchor="end"
       style="font-size: 9.00px; font-family: Arial;"
       textLength="12.51px"
       lengthAdjust="spacingAndGlyphs"
       id="text417">0.6</text>
    <polyline
       points="597.76,392.64 600.50,392.64 "
       style="stroke-width: 1.07; stroke: #333333; stroke-linecap: butt;"
       id="polyline419" />
    <polyline
       points="597.76,345.62 600.50,345.62 "
       style="stroke-width: 1.07; stroke: #333333; stroke-linecap: butt;"
       id="polyline421" />
    <polyline
       points="597.76,298.60 600.50,298.60 "
       style="stroke-width: 1.07; stroke: #333333; stroke-linecap: butt;"
       id="polyline423" />
    <polyline
       points="597.76,251.58 600.50,251.58 "
       style="stroke-width: 1.07; stroke: #333333; stroke-linecap: butt;"
       id="polyline425" />
    <polyline
       points="319.56,193.47 319.56,27.21 "
       style="stroke-width: 1.07; stroke-linecap: butt;"
       id="polyline427" />
    <text
       x="314.63"
       y="189.13"
       text-anchor="end"
       style="font-size: 9.00px; font-family: Arial;"
       textLength="5.00px"
       lengthAdjust="spacingAndGlyphs"
       id="text429">0</text>
    <text
       x="314.63"
       y="148.10"
       text-anchor="end"
       style="font-size: 9.00px; font-family: Arial;"
       textLength="5.00px"
       lengthAdjust="spacingAndGlyphs"
       id="text431">3</text>
    <text
       x="314.63"
       y="107.07"
       text-anchor="end"
       style="font-size: 9.00px; font-family: Arial;"
       textLength="5.00px"
       lengthAdjust="spacingAndGlyphs"
       id="text433">6</text>
    <text
       x="314.63"
       y="66.04"
       text-anchor="end"
       style="font-size: 9.00px; font-family: Arial;"
       textLength="5.00px"
       lengthAdjust="spacingAndGlyphs"
       id="text435">9</text>
    <polyline
       points="316.82,185.91 319.56,185.91 "
       style="stroke-width: 1.07; stroke: #333333; stroke-linecap: butt;"
       id="polyline437" />
    <polyline
       points="316.82,144.88 319.56,144.88 "
       style="stroke-width: 1.07; stroke: #333333; stroke-linecap: butt;"
       id="polyline439" />
    <polyline
       points="316.82,103.85 319.56,103.85 "
       style="stroke-width: 1.07; stroke: #333333; stroke-linecap: butt;"
       id="polyline441" />
    <polyline
       points="316.82,62.82 319.56,62.82 "
       style="stroke-width: 1.07; stroke: #333333; stroke-linecap: butt;"
       id="polyline443" />
    <polyline
       points="319.56,400.19 319.56,233.94 "
       style="stroke-width: 1.07; stroke-linecap: butt;"
       id="polyline445" />
    <text
       x="314.63"
       y="395.86"
       text-anchor="end"
       style="font-size: 9.00px; font-family: Arial;"
       textLength="12.51px"
       lengthAdjust="spacingAndGlyphs"
       id="text447">0.0</text>
    <text
       x="314.63"
       y="347.63"
       text-anchor="end"
       style="font-size: 9.00px; font-family: Arial;"
       textLength="12.51px"
       lengthAdjust="spacingAndGlyphs"
       id="text449">0.4</text>
    <text
       x="314.63"
       y="299.40"
       text-anchor="end"
       style="font-size: 9.00px; font-family: Arial;"
       textLength="12.51px"
       lengthAdjust="spacingAndGlyphs"
       id="text451">0.8</text>
    <text
       x="314.63"
       y="251.17"
       text-anchor="end"
       style="font-size: 9.00px; font-family: Arial;"
       textLength="12.51px"
       lengthAdjust="spacingAndGlyphs"
       id="text453">1.2</text>
    <polyline
       points="316.82,392.64 319.56,392.64 "
       style="stroke-width: 1.07; stroke: #333333; stroke-linecap: butt;"
       id="polyline455" />
    <polyline
       points="316.82,344.41 319.56,344.41 "
       style="stroke-width: 1.07; stroke: #333333; stroke-linecap: butt;"
       id="polyline457" />
    <polyline
       points="316.82,296.18 319.56,296.18 "
       style="stroke-width: 1.07; stroke: #333333; stroke-linecap: butt;"
       id="polyline459" />
    <polyline
       points="316.82,247.95 319.56,247.95 "
       style="stroke-width: 1.07; stroke: #333333; stroke-linecap: butt;"
       id="polyline461" />
    <polyline
       points="38.62,193.47 38.62,27.21 "
       style="stroke-width: 1.07; stroke-linecap: butt;"
       id="polyline463" />
    <text
       x="33.69"
       y="189.13"
       text-anchor="end"
       style="font-size: 9.00px; font-family: Arial;"
       textLength="5.00px"
       lengthAdjust="spacingAndGlyphs"
       id="text465">0</text>
    <text
       x="33.69"
       y="134.09"
       text-anchor="end"
       style="font-size: 9.00px; font-family: Arial;"
       textLength="10.01px"
       lengthAdjust="spacingAndGlyphs"
       id="text467">20</text>
    <text
       x="33.69"
       y="79.06"
       text-anchor="end"
       style="font-size: 9.00px; font-family: Arial;"
       textLength="10.01px"
       lengthAdjust="spacingAndGlyphs"
       id="text469">40</text>
    <polyline
       points="35.88,185.91 38.62,185.91 "
       style="stroke-width: 1.07; stroke: #333333; stroke-linecap: butt;"
       id="polyline471" />
    <polyline
       points="35.88,130.87 38.62,130.87 "
       style="stroke-width: 1.07; stroke: #333333; stroke-linecap: butt;"
       id="polyline473" />
    <polyline
       points="35.88,75.83 38.62,75.83 "
       style="stroke-width: 1.07; stroke: #333333; stroke-linecap: butt;"
       id="polyline475" />
    <polyline
       points="38.62,400.19 38.62,233.94 "
       style="stroke-width: 1.07; stroke-linecap: butt;"
       id="polyline477" />
    <text
       x="33.69"
       y="395.86"
       text-anchor="end"
       style="font-size: 9.00px; font-family: Arial;"
       textLength="12.51px"
       lengthAdjust="spacingAndGlyphs"
       id="text479">0.0</text>
    <text
       x="33.69"
       y="361.83"
       text-anchor="end"
       style="font-size: 9.00px; font-family: Arial;"
       textLength="12.51px"
       lengthAdjust="spacingAndGlyphs"
       id="text481">0.5</text>
    <text
       x="33.69"
       y="327.80"
       text-anchor="end"
       style="font-size: 9.00px; font-family: Arial;"
       textLength="12.51px"
       lengthAdjust="spacingAndGlyphs"
       id="text483">1.0</text>
    <text
       x="33.69"
       y="293.77"
       text-anchor="end"
       style="font-size: 9.00px; font-family: Arial;"
       textLength="12.51px"
       lengthAdjust="spacingAndGlyphs"
       id="text485">1.5</text>
    <text
       x="33.69"
       y="259.73"
       text-anchor="end"
       style="font-size: 9.00px; font-family: Arial;"
       textLength="12.51px"
       lengthAdjust="spacingAndGlyphs"
       id="text487">2.0</text>
    <polyline
       points="35.88,392.64 38.62,392.64 "
       style="stroke-width: 1.07; stroke: #333333; stroke-linecap: butt;"
       id="polyline489" />
    <polyline
       points="35.88,358.61 38.62,358.61 "
       style="stroke-width: 1.07; stroke: #333333; stroke-linecap: butt;"
       id="polyline491" />
    <polyline
       points="35.88,324.57 38.62,324.57 "
       style="stroke-width: 1.07; stroke: #333333; stroke-linecap: butt;"
       id="polyline493" />
    <polyline
       points="35.88,290.54 38.62,290.54 "
       style="stroke-width: 1.07; stroke: #333333; stroke-linecap: butt;"
       id="polyline495" />
    <polyline
       points="35.88,256.51 38.62,256.51 "
       style="stroke-width: 1.07; stroke: #333333; stroke-linecap: butt;"
       id="polyline497" />
    <text
       transform="translate(13.15,213.70) rotate(-90)"
       text-anchor="middle"
       style="font-size: 14.00px; font-family: Arial;"
       textLength="255.07px"
       lengthAdjust="spacingAndGlyphs"
       id="text499">Mean predator species abundance (±SE)</text>
  </g>
  <path
     style="fill:#000000;stroke:#000000;stroke-width:0.12983;stroke-linecap:round;stroke-linejoin:round;stroke-miterlimit:10"
     d="m 138.98475,77.314467 c -0.005,-0.12799 0.54673,-0.791169 1.7518,-2.104473 1.31417,-1.432214 2.47295,-3.005007 2.95948,-4.01677 0.87874,-1.827508 0.99979,-3.296691 0.49917,-6.058704 -0.30707,-1.694097 -0.23166,-2.442894 0.33966,-3.372891 0.57126,-0.929863 0.51588,-1.567991 -0.3078,-3.547491 -0.85475,-2.054144 -0.91329,-2.923685 -0.3166,-4.703683 0.93223,-2.780959 0.33696,-5.521518 -2.00574,-9.234174 -0.88574,-1.403687 -1.44396,-2.545402 -1.24846,-2.553496 0.2975,-0.01232 1.69335,0.380601 2.14954,0.605077 1.3936,0.685727 5.99487,3.603603 8.19596,5.197428 0.12914,0.0935 0.52374,0.369968 0.87692,0.614365 1.35326,0.936443 2.47026,1.759986 4.93538,3.638767 1.7105,1.30364 2.78093,2.027739 3.25008,2.198527 l 0.69955,0.254665 1.75845,-0.349684 c 1.17289,-0.233239 2.6473,-0.415838 4.4276,-0.548366 2.3481,-0.174726 2.79353,-0.241168 3.70342,-0.551973 1.9054,-0.650849 3.39571,-1.909104 4.42073,-3.732342 0.65328,-1.162007 0.85424,-2.025568 0.8879,-3.815429 l 0.0293,-1.558921 0.63456,0.01079 c 1.23391,0.02105 2.99522,0.381909 5.64387,1.156424 3.1957,0.934483 4.29368,1.188431 7.01247,1.621892 1.13124,0.180356 2.82317,0.458685 3.75983,0.61851 2.25304,0.384421 3.22953,0.416231 5.15514,0.167916 0.88389,-0.113998 3.34592,-0.273382 5.47117,-0.354232 3.78184,-0.143924 3.87188,-0.141597 4.23072,0.104148 l 0.36664,0.25114 -0.27813,-0.258092 -0.27812,-0.258081 1.11573,-0.04619 c 1.38234,-0.05722 3.08126,-0.297478 4.81623,-0.681078 2.78942,-0.616738 5.89363,-0.762018 10.82938,-0.50682 2.81316,0.145447 9.02208,0.406295 9.34911,0.392756 0.24868,-0.01029 0.26105,0.01481 0.10129,0.205492 -0.17111,0.204266 -0.16582,0.204751 0.0887,0.0081 0.25234,-0.194875 0.47757,-0.198404 3.31294,-0.05194 4.87349,0.251715 9.40657,0.654113 12.79368,1.135673 3.48496,0.495475 4.47033,0.617428 7.64852,0.946562 4.04983,0.419414 5.5912,0.622097 7.93439,1.043325 1.01508,0.182482 3.12192,0.527185 4.68185,0.766019 6.51788,0.997879 6.34768,0.965596 13.2087,2.505041 5.28205,1.185169 6.53389,1.497769 7.88274,1.968432 0.92256,0.321933 1.17771,0.461539 1.11739,0.611457 -0.043,0.106893 -0.0774,0.211724 -0.0765,0.23306 8.4e-4,0.02129 -0.29982,0.240535 -0.66822,0.487076 -0.71936,0.481409 -0.93282,0.875398 -1.1904,2.197119 -0.12547,0.643944 -0.1563,0.685705 -0.42553,0.576389 -0.15964,-0.06485 -0.40171,-0.277121 -0.53794,-0.471775 -0.4567,-0.652619 -0.92568,-1.00924 -1.48145,-1.126583 -0.69401,-0.146537 -1.12307,0.08123 -1.51799,0.805804 l -0.27023,0.495823 -0.50529,-0.345653 c -0.46212,-0.316103 -0.59061,-0.342108 -1.50395,-0.304297 -1.34546,0.05571 -2.05043,0.279981 -2.35927,0.750585 -0.39983,0.609212 -0.31875,0.728844 0.65765,0.970419 1.4075,0.348225 2.36953,0.412134 5.82872,0.387208 4.61613,-0.03328 4.74321,-0.02329 6.18509,0.485846 0.68821,0.243006 1.25359,0.497451 1.25641,0.565417 0.009,0.198603 -1.31366,1.288201 -2.00457,1.652326 -1.53449,0.808719 -6.48853,2.240473 -7.38076,2.133103 -0.17794,-0.02144 -0.32191,3.21e-4 -0.31992,0.04843 0.004,0.09527 -1.3303,0.310705 -4.4793,0.723191 -2.86626,0.375437 -4.7776,0.684733 -8.46855,1.370362 -5.29202,0.983036 -7.34667,1.272591 -10.43718,1.470861 -2.80851,0.180156 -3.91406,0.173039 -7.68198,-0.05259 -5.94187,-0.355069 -11.96398,-0.492185 -17.20771,-0.391776 -3.16995,0.06075 -3.40163,0.0499 -3.74043,-0.17438 l -0.36118,-0.239086 0.25896,0.241515 c 0.25769,0.240345 0.25491,0.242033 -0.57423,0.350453 -1.09195,0.14284 -1.66405,0.372582 -3.89533,1.564668 -3.39387,1.813218 -3.79999,1.904665 -4.95862,1.116599 -1.39314,-0.947569 -1.97403,-1.028314 -3.35907,-0.466955 -0.46933,0.190225 -1.17476,0.387531 -1.5676,0.43845 l -0.71428,0.09257 -0.29799,-1.110114 c -0.41662,-1.552091 -0.72502,-2.054545 -1.30661,-2.12886 -0.25302,-0.03229 -1.85582,-0.001 -3.56176,0.06961 l -3.10174,0.12841 0.32691,-0.343041 0.3269,-0.343051 -0.42343,0.353667 -0.42343,0.353678 -3.9289,0.02031 c -4.62421,0.0239 -10.62839,0.352274 -13.69226,0.74873 -3.091,0.400013 -6.8187,1.04292 -7.84549,1.353088 -0.6516,0.196837 -0.92717,0.232973 -1.07058,0.140414 -0.14933,-0.0964 -0.17255,-0.08368 -0.10239,0.05591 0.0674,0.134305 -0.20388,0.325072 -1.05805,0.74396 -2.37421,1.164305 -5.46723,2.588139 -6.39937,2.945889 -1.08301,0.415651 -3.23613,0.989808 -3.35714,0.895248 -0.0434,-0.03393 -0.0116,-0.731519 0.0707,-1.550242 0.33709,-3.355269 0.24758,-4.422314 -0.47265,-5.633847 -0.68441,-1.151267 -2.31298,-2.107406 -4.52413,-2.656101 -1.57165,-0.390014 -4.42164,-0.668327 -6.27974,-0.61325 -2.51904,0.07471 -2.63418,0.136867 -6.18152,3.341187 -4.09853,3.702159 -4.99647,4.43618 -7.53276,6.157634 -1.54709,1.050063 -3.53279,2.106035 -5.08635,2.704837 -1.69445,0.653122 -4.17361,1.283701 -4.18272,1.063883 z m 73.39266,-11.211295 c 0.16714,-0.196956 0.16199,-0.200986 -0.055,-0.04291 -0.13167,0.09594 -0.23854,0.194679 -0.23751,0.219528 0.004,0.09846 0.11698,0.03034 0.29249,-0.17657 z m 1.08577,-1.003531 c 0.16713,-0.196956 0.16197,-0.200987 -0.055,-0.04291 -0.13166,0.09594 -0.23853,0.19469 -0.23751,0.219528 0.004,0.09845 0.11698,0.03034 0.2925,-0.176559 z m 1.08577,-1.003533 c 0.16712,-0.196966 0.16197,-0.200985 -0.055,-0.04291 -0.13166,0.09594 -0.23853,0.194679 -0.23751,0.219528 0.004,0.09845 0.11698,0.03034 0.29249,-0.17657 z m 1.08575,-1.003532 c 0.16714,-0.196965 0.16198,-0.200985 -0.055,-0.04291 -0.13165,0.09594 -0.23855,0.194679 -0.23752,0.219519 0.004,0.09845 0.11698,0.03034 0.29249,-0.176561 z m 1.08577,-1.003531 c 0.16713,-0.196966 0.16198,-0.200997 -0.055,-0.04291 -0.13165,0.09594 -0.23855,0.194677 -0.23752,0.219517 0.004,0.09846 0.11699,0.03034 0.2925,-0.176561 z m -52.09531,1.467731 c 0.25293,-0.241133 0.42822,-0.437107 0.38953,-0.435506 -0.0387,0.0016 -0.27728,0.200196 -0.53021,0.44133 -0.25293,0.241134 -0.42822,0.437108 -0.38954,0.435506 0.0387,-0.0016 0.27728,-0.200195 0.53022,-0.44133 z m 53.18108,-2.471273 c 0.16713,-0.196955 0.16198,-0.200986 -0.055,-0.04291 -0.13167,0.09594 -0.23855,0.194689 -0.23751,0.219527 0.004,0.09846 0.11697,0.03034 0.29249,-0.176559 z m -51.80717,1.186206 c 0.16713,-0.196967 0.16198,-0.200986 -0.055,-0.04291 -0.22785,0.165968 -0.29831,0.267279 -0.18252,0.262485 0.0292,-0.0012 0.13608,-0.09997 0.23751,-0.219517 z m 52.89294,-2.189738 c 0.16711,-0.196967 0.16196,-0.200986 -0.055,-0.04291 -0.13165,0.09594 -0.23853,0.194688 -0.2375,0.219526 0.004,0.09845 0.11697,0.03034 0.2925,-0.176559 z m -51.80718,1.186207 c 0.16711,-0.196966 0.16196,-0.200985 -0.055,-0.04291 -0.22785,0.165968 -0.29831,0.267279 -0.18252,0.262485 0.0292,-0.0012 0.1361,-0.09998 0.23751,-0.219528 z m 52.89295,-2.189739 c 0.16711,-0.196966 0.16196,-0.200985 -0.055,-0.04291 -0.13165,0.09594 -0.23852,0.194678 -0.2375,0.219517 0.004,0.09845 0.11696,0.03034 0.29248,-0.17656 z m -51.80718,1.186207 c 0.16711,-0.196966 0.16196,-0.200997 -0.055,-0.04291 -0.22786,0.165968 -0.29831,0.267277 -0.18253,0.262484 0.0292,-0.0012 0.1361,-0.09997 0.2375,-0.219526 z m 54.00221,-2.191023 c -8.1e-4,-0.02481 -0.1157,-0.114461 -0.25483,-0.199145 -0.22929,-0.139556 -0.23409,-0.135112 -0.0513,0.04731 0.19201,0.191654 0.31016,0.250236 0.30607,0.15178 z m -0.96249,-0.766818 c -0.22211,-0.181282 -0.4355,-0.3283 -0.47417,-0.326699 -0.0386,0.0016 0.10687,0.147591 0.32359,0.324423 0.21666,0.176833 0.34743,0.368789 0.29061,0.426556 -0.0568,0.05777 -0.0207,0.06012 0.0803,0.0055 0.14047,-0.0764 0.0887,-0.177228 -0.22029,-0.429467 z m 0.85442,-0.142024 c 0.13459,-0.137379 0.21306,-0.248466 0.17437,-0.246864 -0.0386,0.0016 -0.18045,0.115332 -0.31505,0.252688 -0.13459,0.137379 -0.21306,0.248466 -0.17438,0.246864 0.0387,-0.0016 0.18046,-0.115331 0.31506,-0.252688 z m -52.80837,2.096409 c 0.16712,-0.196965 0.16197,-0.200985 -0.055,-0.04291 -0.22787,0.165968 -0.29832,0.267278 -0.18255,0.262485 0.0292,-0.0012 0.1361,-0.09998 0.23752,-0.219529 z m 1.39582,0.112878 c -8.4e-4,-0.0214 -0.18109,-0.162243 -0.40044,-0.312928 l -0.39887,-0.273985 0.35464,0.314836 c 0.33149,0.294256 0.44856,0.36589 0.44467,0.272077 z m 102.5514,-4.65588 c 0.16712,-0.196966 0.16197,-0.200997 -0.055,-0.04291 -0.13165,0.09594 -0.23853,0.194679 -0.2375,0.219517 0.004,0.09845 0.11697,0.03034 0.29248,-0.17656 z m 0.83289,0.12997 c -8.1e-4,-0.02481 -0.11571,-0.11446 -0.25484,-0.199145 -0.22928,-0.139555 -0.23408,-0.135113 -0.0512,0.04731 0.19202,0.191652 0.31016,0.250235 0.30607,0.151779 z m -104.14951,3.829385 c -0.0214,-0.0069 -0.20184,-0.113072 -0.40069,-0.235943 l -0.36153,-0.223403 0.2708,0.250842 c 0.16296,0.150965 0.22913,0.315206 0.16616,0.4125 -0.0786,0.121573 -0.0464,0.117872 0.12988,-0.01528 0.12898,-0.09715 0.2169,-0.182205 0.19536,-0.189098 z m 0.45516,-0.419873 c 0.16713,-0.196966 0.16198,-0.200997 -0.055,-0.04291 -0.22786,0.165968 -0.29832,0.267278 -0.18253,0.262484 0.0292,-0.0012 0.13608,-0.09997 0.23751,-0.219528 z m 52.89294,-2.189737 c 0.16711,-0.196966 0.16197,-0.200998 -0.055,-0.04291 -0.13167,0.09594 -0.23855,0.194677 -0.23752,0.219517 0.004,0.09845 0.11698,0.03034 0.2925,-0.176561 z m -51.80717,1.186195 c 0.16712,-0.196956 0.16197,-0.200986 -0.055,-0.04291 -0.22784,0.165967 -0.29831,0.267278 -0.18251,0.262484 0.0292,-0.0012 0.13608,-0.09997 0.23751,-0.219517 z m 52.89294,-2.189739 c 0.16711,-0.196955 0.16196,-0.200985 -0.055,-0.04291 -0.22786,0.165967 -0.29831,0.267278 -0.18251,0.262485 0.0292,-0.0012 0.13607,-0.09997 0.2375,-0.219518 z m -51.80718,1.186208 c 0.16711,-0.196967 0.16196,-0.200987 -0.055,-0.04291 -0.22786,0.165968 -0.29831,0.267279 -0.18252,0.262485 0.0292,-0.0012 0.13609,-0.09998 0.2375,-0.219517 z m 52.89295,-2.189739 c 0.16711,-0.196966 0.16196,-0.200986 -0.055,-0.04291 -0.13166,0.09594 -0.23853,0.194689 -0.23751,0.219528 0.004,0.09845 0.11697,0.03034 0.29249,-0.17656 z m 51.46144,-2.729589 c 0.16712,-0.196965 0.16197,-0.200985 -0.055,-0.04291 -0.13167,0.09594 -0.23854,0.194678 -0.23751,0.219528 0.004,0.09845 0.11697,0.03034 0.29249,-0.176571 z m -103.26862,3.915796 c 0.16711,-0.196967 0.16196,-0.200986 -0.055,-0.04291 -0.22787,0.165968 -0.29831,0.267278 -0.18254,0.262486 0.0292,-0.0012 0.1361,-0.09998 0.23751,-0.219529 z m 52.89292,-2.189738 c 0.16713,-0.196967 0.16198,-0.200986 -0.055,-0.04291 -0.22785,0.165968 -0.2983,0.267278 -0.18254,0.262486 0.0292,-0.0012 0.1361,-0.09998 0.23751,-0.219527 z m -51.80717,1.186207 c 0.16714,-0.196968 0.16198,-0.200998 -0.055,-0.04291 -0.22786,0.165968 -0.29831,0.267278 -0.18254,0.262484 0.0292,-0.0012 0.1361,-0.09996 0.23751,-0.219527 z m 52.89294,-2.189738 c 0.16713,-0.196967 0.16198,-0.200997 -0.055,-0.04291 -0.22786,0.165968 -0.29832,0.267278 -0.18254,0.262485 0.0292,-0.0012 0.13609,-0.09996 0.23751,-0.219527 z m -51.80717,1.186194 c 0.16713,-0.196954 0.16198,-0.200986 -0.055,-0.04291 -0.22785,0.165969 -0.29831,0.267279 -0.18253,0.262486 0.0292,-0.0012 0.13609,-0.09998 0.23751,-0.219517 z m 52.89294,-2.189739 c 0.16713,-0.196954 0.16198,-0.200985 -0.055,-0.04291 -0.13165,0.09594 -0.23853,0.194689 -0.2375,0.219528 0.004,0.09845 0.11697,0.03034 0.29248,-0.176561 z m -51.80717,1.186208 c 0.16713,-0.196966 0.16198,-0.200986 -0.055,-0.04291 -0.22784,0.165967 -0.2983,0.267278 -0.18251,0.262484 0.0292,-0.0012 0.13608,-0.09997 0.23751,-0.219516 z m 52.89294,-2.189739 c 0.16712,-0.196965 0.16197,-0.200985 -0.055,-0.04291 -0.13165,0.09594 -0.23853,0.194689 -0.23751,0.219528 0.004,0.09845 0.11698,0.03034 0.29251,-0.176561 z m -51.80718,1.186207 c 0.16712,-0.196966 0.16197,-0.200986 -0.055,-0.04291 -0.13166,0.09594 -0.23855,0.194678 -0.23752,0.219516 0.004,0.09845 0.11698,0.03034 0.2925,-0.176559 z m 52.89294,-2.189738 c 0.16713,-0.196967 0.16198,-0.200986 -0.055,-0.04291 -0.13167,0.09594 -0.23854,0.194678 -0.23752,0.219517 0.004,0.09845 0.11698,0.03034 0.2925,-0.17656 z m -51.80718,1.186206 c 0.16713,-0.196966 0.16198,-0.200986 -0.055,-0.04291 -0.22787,0.165968 -0.29832,0.267279 -0.18255,0.262486 0.0292,-0.0012 0.1361,-0.09998 0.23752,-0.219528 z m 52.89293,-2.189737 c 0.16714,-0.196967 0.16198,-0.200986 -0.055,-0.04291 -0.13166,0.09594 -0.23855,0.194679 -0.23752,0.219517 0.004,0.09846 0.11698,0.03034 0.29249,-0.176559 z m -51.80715,1.186206 c 0.16712,-0.196967 0.16196,-0.200997 -0.055,-0.04291 -0.22787,0.165957 -0.29832,0.267278 -0.18255,0.262484 0.0292,-0.0012 0.1361,-0.09997 0.23752,-0.219527 z m 52.89293,-2.189738 c 0.16712,-0.196966 0.16197,-0.200997 -0.055,-0.04291 -0.13166,0.09594 -0.23855,0.194678 -0.23752,0.219517 0.004,0.09845 0.11698,0.03034 0.29249,-0.17656 z m -51.80717,1.186196 c 0.16712,-0.196956 0.16197,-0.200986 -0.055,-0.04291 -0.22785,0.165968 -0.29832,0.267278 -0.18252,0.262485 0.0292,-0.0012 0.13609,-0.09997 0.2375,-0.219516 z m 1.08577,-1.003533 c 0.16712,-0.196965 0.16197,-0.200986 -0.055,-0.04291 -0.13164,0.09594 -0.23854,0.194678 -0.23751,0.219528 0.004,0.09846 0.11698,0.03034 0.2925,-0.176561 z m 1.08575,-1.003532 c 0.16712,-0.196965 0.16198,-0.200986 -0.055,-0.04291 -0.22786,0.165957 -0.2983,0.267277 -0.18254,0.262485 0.0292,-0.0012 0.13611,-0.09998 0.23752,-0.21953 z"
     id="path4722"
     inkscape:connector-curvature="0" />
  <path
     style="opacity:1;fill:#605b58;fill-opacity:0;stroke:#ff0000;stroke-width:0.87096775;stroke-linecap:round;stroke-linejoin:round;stroke-miterlimit:10"
     d=""
     id="path4809"
     inkscape:connector-curvature="0"
     transform="scale(0.8,0.8)" />
  <path
     style="fill:#000000;stroke:#000000;stroke-width:0.20614433;stroke-linecap:round;stroke-linejoin:round;stroke-miterlimit:10"
     d="m 806.88093,281.07258 c 0.19564,-0.0133 0.68598,-0.18746 1.08964,-0.38693 0.40365,-0.19948 1.13243,-0.72296 1.61949,-1.16328 l 0.88555,-0.80058 0.71066,-1.08013 0.71067,-1.08013 0.60652,-2.20824 0.60654,-2.20824 0.20516,-0.18898 c 0.11283,-0.10394 0.53109,-0.26328 0.92946,-0.35408 0.39838,-0.0908 1.06261,-0.27482 1.47607,-0.40893 0.41346,-0.13411 1.52498,-0.51064 2.47004,-0.83675 0.94505,-0.3261 1.9688,-0.75443 2.27498,-0.95183 l 0.55671,-0.35893 2.55769,-0.63016 c 1.40673,-0.34657 3.1595,-0.70297 3.89504,-0.79198 l 1.33735,-0.16183 2.31401,-1.02095 c 1.27271,-0.56153 2.69583,-1.14629 3.16249,-1.29947 0.46667,-0.15317 1.02242,-0.4235 1.23502,-0.60072 l 0.38654,-0.32224 0,-0.55121 0,-0.55121 -0.26637,-0.15165 -0.26638,-0.15164 -1.72039,0.056 -1.7204,0.0561 0.32218,-0.30311 c 0.1772,-0.16673 0.75712,-0.51403 1.28871,-0.7718 l 0.96654,-0.46865 0.059,-0.38089 0.059,-0.38087 -1.71047,-1.4365 -1.71049,-1.4365 -2.10725,-1.10943 -2.10724,-1.10943 -1.18133,-1.11976 -1.18132,-1.11976 -2.39134,-1.11658 -2.39133,-1.11658 -2.1866,-0.62156 c -1.20263,-0.34185 -2.90795,-0.7371 -3.78959,-0.87832 -0.88165,-0.14123 -1.65083,-0.30084 -1.7093,-0.3547 -0.0584,-0.0538 -0.2779,-0.57821 -0.48764,-1.16523 l -0.38135,-1.06733 -0.28087,0.0564 -0.28088,0.0564 -0.31413,-0.24015 c -0.17278,-0.13208 -0.49662,-0.55811 -0.71966,-0.94673 l -0.40551,-0.70658 -0.009,0.74618 -0.009,0.74618 -0.55903,0.23463 -0.55903,0.23463 -0.676,-0.72549 c -0.37178,-0.39903 -0.84964,-0.95168 -1.06187,-1.22813 -0.21225,-0.27645 -0.469,-0.50263 -0.57056,-0.50263 l -0.18465,0 0.1066,0.37548 0.10659,0.37547 -0.24863,0.42793 -0.24863,0.42794 -0.46873,-0.0614 -0.46874,-0.0614 -0.34745,-0.64066 c -0.1911,-0.35236 -0.46874,-0.77527 -0.61696,-0.93979 -0.14823,-0.16453 -0.34119,-0.29913 -0.4288,-0.29913 l -0.15928,0 0.0245,0.74194 0.0245,0.74194 -0.44167,0.0582 -0.44166,0.0582 -0.52487,-0.47357 c -0.28867,-0.26046 -0.79886,-0.75407 -1.13374,-1.09691 -0.33488,-0.34284 -0.70767,-0.62335 -0.82842,-0.62335 l -0.21956,0 0.16317,0.34624 c 0.0898,0.19043 0.17257,0.55754 0.18407,0.8158 l 0.0209,0.46955 -0.36189,0.21379 -0.36189,0.21378 -0.51835,-0.25554 c -0.28509,-0.14055 -0.78969,-0.47031 -1.12131,-0.7328 -0.33164,-0.26249 -0.67966,-0.47727 -0.77339,-0.47727 l -0.17043,0 0.32195,0.70977 0.32195,0.70976 -0.25182,0.27949 -0.25181,0.27949 -0.38679,0 -0.38679,0 -0.63815,-0.49463 c -0.35098,-0.27204 -0.74841,-0.49462 -0.88317,-0.49462 l -0.24504,0 0.23888,0.41116 0.23889,0.41116 -0.11719,0.28131 -0.1172,0.28132 -0.5014,0 -0.50138,0 -0.92116,-0.62402 -0.92117,-0.62402 0.0435,0.47563 c 0.0239,0.2616 0.0328,0.54562 0.0197,0.63116 l -0.0238,0.15552 -0.8016,-0.50177 c -0.44089,-0.27596 -0.88234,-0.50176 -0.98102,-0.50176 l -0.1794,0 0.13668,0.39668 0.13668,0.39668 -0.3176,0.11226 -0.3176,0.11227 -0.63772,-0.30377 -0.63771,-0.30378 -0.12855,-0.30857 -0.12855,-0.30858 -0.42581,0.24496 -0.4258,0.24495 -0.7761,-0.25851 -0.77608,-0.25851 -0.27307,0.34399 -0.27306,0.34398 -0.57037,-0.13186 -0.57038,-0.13187 0,0.20162 0,0.20162 -0.63169,0 -0.63169,0 -0.14979,-0.22326 -0.14979,-0.22326 -0.20307,0.33426 -0.20307,0.33427 -0.64866,-0.13125 c -0.35676,-0.0722 -1.07365,-0.14438 -1.59308,-0.16046 l -0.94443,-0.0292 2e-4,0.14839 c 1.1e-4,0.0816 -0.126,0.14839 -0.28025,0.14839 -0.15425,0 -0.59408,0.21315 -0.97741,0.47366 l -0.69697,0.47366 -0.92937,0.21556 -0.92936,0.21557 -1.47609,0.72419 c -0.81186,0.3983 -1.62108,0.83418 -1.79828,0.96863 -0.17719,0.13446 -0.61566,0.3812 -0.97435,0.54833 -0.35869,0.16712 -1.0836,0.67814 -1.61089,1.13559 l -0.95873,0.83172 0.004,0.91624 0.004,0.91625 0.61312,0.83762 0.6131,0.83761 0.18612,-0.10595 0.18611,-0.10596 -0.11821,0.28378 -0.11822,0.28378 0.92612,0.69279 0.92613,0.69279 1.05062,0.43636 1.05061,0.43635 1.52682,-0.008 1.52681,-0.008 -0.75175,0.31976 -0.75176,0.31977 -1.82567,0.009 -1.82568,0.009 -1.07393,-0.52549 c -0.59066,-0.28901 -1.84716,-0.97245 -2.79222,-1.51875 -0.94506,-0.54631 -2.37937,-1.31298 -3.18735,-1.70374 l -1.46907,-0.71046 -1.02505,-0.11183 -1.02505,-0.11183 -1.04985,0.55752 c -0.57742,0.30664 -1.40435,0.87405 -1.83763,1.2609 -0.43328,0.38685 -0.98904,1.03995 -1.23502,1.45133 l -0.44722,0.74796 0,0.78537 0,0.7854 -0.32218,0 c -0.17721,0 -0.32218,0.0328 -0.32218,0.073 0,0.0402 -0.1458,0.84319 -0.32401,1.78453 l -0.32402,1.71152 0.22717,1.62839 c 0.12494,0.89562 0.28062,1.98453 0.34595,2.4198 l 0.11877,0.7914 1.01289,0.98925 1.01289,0.98925 0.25437,0.55437 0.25438,0.55437 0.69758,0.27221 0.69757,0.2722 0.26306,0.39931 0.26307,0.39932 0.81085,0.20742 0.81087,0.20743 1.02713,8.6e-4 1.02713,8.5e-4 0.69116,-0.26779 0.69116,-0.26777 1.66526,-1.30622 c 0.9159,-0.71854 2.14043,-1.74405 2.72121,-2.27902 l 1.05594,-0.97269 1.0018,-0.44673 1.00181,-0.44673 2.07636,0.0921 2.07635,0.0921 0.48312,0.27792 c 0.26572,0.15269 0.48312,0.34537 0.48312,0.42801 l 0,0.15026 -0.39595,0 c -0.21777,0 -0.9601,0.1788 -1.64961,0.39732 l -1.25367,0.39731 -0.40726,0.3395 c -0.22399,0.18673 -0.7277,0.87601 -1.11935,1.53174 -0.39166,0.65572 -0.83423,1.51488 -0.9835,1.90924 l -0.2714,0.71703 0.61977,0.79422 0.61977,0.79423 0.64862,0.40761 0.64862,0.4076 2.13988,0.42579 2.13988,0.42579 1.0645,-0.13008 1.06449,-0.13007 0.92382,-0.49872 0.92384,-0.49871 0.21883,0.12458 0.21882,0.12459 0.75239,-0.32889 0.75239,-0.32887 0.32392,0.11449 0.32392,0.1145 0,0.35789 0,0.35789 -0.33436,0.43972 -0.33436,0.43972 0.42247,0 0.42246,0 1.12185,-0.84086 c 0.61702,-0.46247 1.49559,-1.09059 1.95237,-1.39579 l 0.8305,-0.55494 0.0103,0.65386 0.0103,0.65385 0.86014,-1.64997 0.86014,-1.64997 1.22369,0.11472 c 0.67303,0.063 3.54338,0.16832 6.37855,0.23385 l 5.15486,0.11913 1.39611,-0.17386 1.39611,-0.17387 1.03064,0.0773 1.03065,0.0773 -0.0642,0.16051 c -0.0353,0.0883 -0.68966,0.61991 -1.45423,1.1814 l -1.39013,1.02088 -0.27446,0.60129 -0.27446,0.60129 0,0.57353 c 0,0.31543 0.0903,0.72811 0.20071,0.91707 0.11039,0.18896 0.32474,0.62759 0.47633,0.97475 l 0.27561,0.63121 0.35904,0.0865 0.35904,0.0865 0.15132,1.01351 0.15132,1.0135 0.35573,-0.0243 z"
     id="path4957"
     inkscape:connector-curvature="0" />
  <path
     style="fill:#000000;stroke:#000000;stroke-width:0.35833833;stroke-linecap:round;stroke-linejoin:round;stroke-miterlimit:10"
     d="m 808.81235,88.246651 c 0.96566,-0.816178 2.0358,-1.990886 2.37809,-2.610474 0.3423,-0.619583 0.75041,-1.126518 0.90692,-1.126518 0.54522,0 4.33097,-6.697933 4.9227,-8.709477 0.66661,-2.266122 0.0687,-1.925661 6.44076,-3.667568 4.05232,-1.107778 6.63307,-2.301132 9.05406,-4.186637 1.01572,-0.79107 3.07636,-2.181714 4.57916,-3.090323 4.67637,-2.827355 8.80372,-6.942965 8.31855,-8.294889 -0.27505,-0.766386 -0.63901,-0.737275 -2.80968,0.224729 -2.55932,1.134245 -2.67652,0.567263 -0.345,-1.668887 2.18345,-2.094128 2.34095,-2.561179 1.2583,-3.731241 -0.39698,-0.429038 -1.37161,-1.851215 -2.16586,-3.160382 -3.41204,-5.624188 -16.02553,-12.920017 -25.09705,-14.516524 -2.48113,-0.436658 -2.52743,-0.46562 -3.53018,-2.208175 -0.55885,-0.971143 -1.2988,-1.863406 -1.64437,-1.982809 -0.34556,-0.1194 -0.99925,-0.800943 -1.45266,-1.514538 -0.94768,-1.491499 -1.25793,-1.588766 -1.77465,-0.556365 -0.54313,1.085121 -1.71326,0.906566 -3.03529,-0.463174 l -1.1623,-1.204254 -0.62574,0.886674 c -0.62444,0.884844 -1.31309,0.940406 -2.88716,0.232948 -0.41971,-0.188631 -0.60645,-0.103176 -0.60645,0.277521 0,1.0728 -0.99013,1.564353 -2.18206,1.083286 -1.00208,-0.404439 -1.14529,-0.360299 -1.83594,0.565843 -0.68849,0.923249 -0.82704,0.966514 -1.71289,0.534943 -0.95961,-0.467516 -1.52502,-0.166679 -1.54112,0.81998 -0.003,0.178897 -0.62312,0.219628 -1.37822,0.09052 -1.16653,-0.199455 -1.43144,-0.11778 -1.76236,0.543374 -0.37621,0.751629 -0.73262,0.779851 -2.11814,0.167701 -0.40643,-0.179564 -0.64538,-0.01746 -0.81459,0.552627 -0.19546,0.658463 -0.42288,0.767513 -1.23738,0.593332 -0.77665,-0.166089 -1.08256,-0.04428 -1.37974,0.549482 -0.28426,0.567945 -0.59487,0.705711 -1.21552,0.539149 -0.45854,-0.123056 -1.13358,-0.02348 -1.5001,0.221276 -0.516,0.34456 -0.97579,0.345899 -2.037,0.006 -2.50819,-0.803516 -9.80807,-0.546917 -14.45864,0.508236 -5.01638,1.138149 -5.11921,1.22593 -3.22792,2.755257 0.82238,0.664976 2.98067,2.855187 4.79621,4.86714 2.92662,3.24324 3.43753,3.658744 4.505,3.663773 3.24133,0.01529 1.87042,1.386944 -2.32706,2.328355 -2.40252,0.538833 -2.66681,0.450983 -17.44769,-5.799727 -6.00733,-2.540446 -9.51479,-3.418926 -12.04924,-3.017853 -1.99026,0.314954 -2.11011,0.921628 -0.67953,3.439611 5.24923,9.23925 6.31399,12.728972 4.84942,15.89375 -1.31718,2.84631 -4.37164,8.853032 -4.9886,9.810303 -2.90082,4.500928 3.85628,3.611453 12.63957,-1.663815 3.44628,-2.069848 6.89672,-3.527388 10.74644,-4.539522 4.13486,-1.087103 4.74518,-1.098122 7.65191,-0.13815 2.64906,0.87488 2.95273,1.467271 0.75213,1.467271 -0.84527,0 -1.90649,0.150263 -2.35826,0.333925 -1.82979,0.743867 -10.31296,8.148697 -10.31296,9.002026 0,0.717017 9.23799,4.899417 12.10651,5.481099 1.21193,0.245756 2.05163,0.229045 2.70871,-0.05392 1.81607,-0.782047 6.17718,-0.728772 6.86496,0.08386 0.80012,0.945352 0.73818,0.965513 2.92408,-0.95176 1.04557,-0.917085 2.06237,-1.667427 2.25956,-1.667427 0.1972,0 0.7318,-0.279549 1.18801,-0.621224 0.72471,-0.542756 2.08035,-0.628028 10.73318,-0.675095 5.44703,-0.02964 10.64442,-0.189596 11.54975,-0.355486 1.07627,-0.197212 1.64606,-0.170198 1.64606,0.07804 0,0.208818 -0.52439,0.484856 -1.1653,0.613424 -2.53795,0.509098 -2.88785,2.517672 -2.07074,11.887028 0.34976,4.010465 0.64025,4.201255 3.15735,2.073789 z"
     id="path5030"
     inkscape:connector-curvature="0" />
  <path
     style="fill:#000000;stroke:#000000;stroke-width:0.20795897;stroke-linecap:round;stroke-linejoin:round;stroke-miterlimit:10"
     d="m 224.51686,285.26832 c -0.804,-0.0678 -0.87178,-0.12844 -1.36257,-1.21966 -1.26779,-2.81881 -1.25388,-2.72962 -0.73542,-4.71276 1.10528,-4.22777 1.61247,-6.00248 1.74566,-6.10823 0.078,-0.0619 1.48227,-0.15927 3.12062,-0.21632 3.27822,-0.11417 -10.93178,-0.82837 -16.57488,-0.83307 l -2.51684,-0.002 -0.74786,0.72943 c -2.31074,2.25377 -3.20366,2.82414 -3.20366,2.04638 0,-0.24389 -0.1326,-0.48384 -0.29467,-0.53322 -0.27499,-0.0838 -5.3294,2.03256 -5.85947,2.45343 -0.48775,0.38729 -0.89011,0.22899 -0.57437,-0.22596 0.5041,-0.72637 0.5198,-1.31987 0.0307,-1.16232 -1.24796,0.40202 -1.80748,0.45979 -1.98695,0.20516 -0.13633,-0.19344 -0.37533,-0.21949 -0.94173,-0.10267 -3.23558,0.66734 -4.75183,0.74436 -7.29371,0.37046 -0.6418,-0.0944 -2.11211,-0.26187 -3.26735,-0.37216 -4.5707,-0.43633 -7.35152,-0.82061 -7.35152,-1.01589 0,-0.1114 0.42009,-0.64646 0.93352,-1.18902 0.51344,-0.54256 0.93353,-1.07029 0.93353,-1.17272 0,-0.1657 2.97295,-4.09502 4.28144,-5.65872 l 0.50289,-0.60098 3.61741,-0.018 3.61742,-0.018 -1.75036,-0.25999 c -3.98799,-0.59237 -4.90253,-0.68741 -7.37343,-0.76625 -3.40362,-0.1086 -5.6746,0.468 -10.95546,2.7816 -1.02225,0.44786 -3.11889,1.33987 -4.65921,1.98225 -1.54032,0.64238 -3.48681,1.47489 -4.32552,1.85002 -0.83872,0.37514 -2.30903,0.91484 -3.26735,1.19933 -0.95832,0.2845 -1.95244,0.58479 -2.20916,0.66731 -3.34498,1.07518 -3.44384,1.09195 -5.26016,0.89232 -2.0869,-0.22938 -1.80959,0.013 -1.88759,-1.64996 -0.0696,-1.48433 0.57539,-3.11592 1.82701,-4.6215 0.29502,-0.35489 0.53641,-0.74493 0.53641,-0.86675 0,-0.12182 0.26256,-0.38548 0.58346,-0.5859 0.3209,-0.20042 0.58345,-0.49228 0.58345,-0.64857 0,-0.15629 0.24334,-0.43615 0.54075,-0.6219 0.29742,-0.18575 0.57179,-0.42112 0.60971,-0.52304 0.0379,-0.10192 0.42471,-0.61087 0.85954,-1.13101 0.43482,-0.52014 0.79058,-1.04131 0.79058,-1.15816 0,-0.11685 0.0969,-0.21246 0.21528,-0.21246 0.11841,0 0.34016,-0.3127 0.49278,-0.69489 0.15262,-0.38219 0.41979,-0.87532 0.59372,-1.09582 0.34104,-0.43238 0.31862,-0.48427 -0.94768,-2.19336 -0.30205,-0.40767 -0.73894,-1.03171 -0.97087,-1.38676 -0.53311,-0.8161 -3.43853,-3.25891 -4.51763,-3.79833 -0.44926,-0.22457 -1.44696,-0.68554 -2.21712,-1.02439 -0.77016,-0.33884 -2.13545,-0.95654 -3.03397,-1.37267 -0.89852,-0.41613 -1.89917,-0.86502 -2.22369,-0.99754 -0.6126,-0.25016 -0.68406,-0.35554 -1.76232,-2.59889 -0.54944,-1.14311 -0.59947,-1.38292 -0.31695,-1.51916 0.33934,-0.16364 2.86746,-1.73145 4.84867,-3.0069 l 1.07941,-0.6949 3.15493,0.008 c 4.86267,0.0124 4.50346,-0.0919 9.80631,2.8489 1.09106,0.60508 2.66639,1.57035 3.50073,2.14505 0.83434,0.57471 1.93498,1.28957 2.44587,1.58858 1.12428,0.65801 0.88931,0.51192 4.90565,3.05016 5.70245,3.60381 7.02,3.85074 12.19737,2.28589 3.3225,-1.00421 3.40726,-1.08597 0.73933,-0.71318 -1.08227,0.15123 -2.12529,0.2733 -2.31783,0.27126 -0.30749,-0.003 -1.46766,-1.23439 -3.54136,-3.75796 -0.56951,-0.69307 -2.22461,-4.33953 -2.02713,-4.46614 0.0462,-0.0296 0.87168,-0.1477 1.83438,-0.26238 3.1752,-0.37826 3.93424,-0.56667 6.45468,-1.60223 1.37266,-0.56398 2.62199,-1.02541 2.77628,-1.02541 0.1543,0 0.40682,-0.12082 0.56117,-0.26848 0.15434,-0.14767 0.66606,-0.36771 1.13714,-0.48899 0.47108,-0.12128 1.14561,-0.38155 1.49895,-0.57838 0.5546,-0.30893 2.24882,-0.65763 6.12563,-1.26074 1.13284,-0.17623 2.03196,-0.40965 3.26734,-0.84824 0.51344,-0.18228 0.98604,-0.34402 1.05022,-0.35943 0.0642,-0.0154 0.53678,-0.18004 1.05022,-0.36585 0.51344,-0.18582 1.34707,-0.328 1.85252,-0.31597 0.64962,0.0155 1.00709,-0.078 1.21954,-0.31883 0.16531,-0.18739 0.69696,-0.39917 1.18145,-0.47064 1.52345,-0.22471 2.54172,-0.79807 2.84506,-1.60197 0.29515,-0.7822 0.49872,-0.86902 1.03645,-0.44205 0.7518,0.59694 2.71723,-0.12334 2.71723,-0.99579 0,-0.57069 0.29438,-0.60224 0.95196,-0.10201 0.61896,0.47084 0.64917,0.47471 1.25336,0.16038 0.64937,-0.33784 1.29541,-1.15954 1.29541,-1.64765 0,-0.36748 0.4538,-0.3664 1.11742,0.003 0.53172,0.29571 1.57243,0.20298 1.3227,-0.11786 -0.0736,-0.0946 0.071,-0.17197 0.32134,-0.17197 0.31322,0 0.5717,-0.23118 0.82872,-0.74122 0.43871,-0.87057 0.4595,-0.87517 1.32934,-0.29403 1.02639,0.68574 2.31531,0.26843 2.31531,-0.74963 0,-0.76932 0.56148,-0.70825 2.23303,0.24288 0.83571,0.47553 1.26769,0.18096 1.26769,-0.86445 0,-0.7628 0.17225,-0.71423 1.63368,0.46075 0.6972,0.56055 1.39656,1.01918 1.55412,1.01918 0.40645,0 1.01307,-0.74594 1.01307,-1.24572 0,-0.67811 0.37394,-0.50155 1.75527,0.82878 1.80886,1.74206 2.73477,1.92913 3.00116,0.60635 0.21671,-1.07602 0.36241,-0.96515 1.70146,1.29472 1.18369,1.99767 1.79563,2.49155 2.29393,1.85137 0.16709,-0.21468 0.60709,-0.25279 0.53476,-0.0463 -0.0268,0.0764 0.18327,0.69843 0.46677,1.38221 0.28349,0.68378 0.51545,1.36611 0.51545,1.51628 0,0.29075 0.10591,0.32496 2.10044,0.6785 5.79273,1.02679 11.82666,4.40217 16.61352,9.29361 2.47798,2.53213 5.58216,4.55864 9.05846,5.91368 1.4036,0.54711 4.51771,2.41408 6.73781,4.03944 2.23765,1.63821 2.43422,1.95148 1.91064,3.0449 -0.16698,0.34873 -0.13884,0.48431 0.11669,0.56217 0.91258,0.27805 -0.1381,2.15259 -1.20652,2.15259 -0.089,0 -0.80219,0.23915 -1.58478,0.53145 -0.78259,0.29229 -2.57813,0.88448 -3.99009,1.31598 -3.50378,1.07076 -3.89704,1.18246 -6.30131,1.78976 -1.15524,0.29181 -2.15294,0.57262 -2.21712,0.62403 -0.0642,0.0514 -0.27423,0.11962 -0.46677,0.15159 -0.19254,0.032 -1.28528,0.3984 -2.42831,0.81428 -1.14303,0.41588 -3.02026,0.95102 -4.17161,1.18918 -1.15136,0.23817 -2.87855,0.72895 -3.83822,1.09063 -2.1273,0.80174 -4.37414,1.56112 -5.31512,1.79638 -1.55613,0.38906 -4.23678,0.88429 -4.79776,0.88634 -0.47752,0.002 -0.68363,0.15969 -1.03063,0.78974 -0.23855,0.43315 -0.76993,1.37126 -1.18083,2.08468 -0.4109,0.71343 -0.82003,1.48328 -0.90917,1.71077 -0.0892,0.2275 -0.63477,0.81121 -1.21249,1.29714 -0.57773,0.48593 -1.20647,1.11652 -1.39722,1.4013 -0.19075,0.28478 -0.63301,0.66002 -0.98281,0.83387 -0.34979,0.17385 -2.07846,1.13776 -3.84148,2.14203 -1.90303,1.08402 -3.34388,1.78378 -3.54607,1.72217 -0.18732,-0.0571 -0.40266,-0.024 -0.47853,0.0734 -0.0759,0.0975 -0.31553,0.1632 -0.53258,0.14607 -0.21705,-0.0171 -0.77538,-0.0632 -1.24074,-0.10247 z m 51.06206,-24.26496 c -0.0856,-0.0679 -0.2256,-0.0679 -0.31117,0 -0.0856,0.068 -0.0156,0.12354 0.15558,0.12354 0.17115,0 0.24116,-0.0556 0.15559,-0.12354 z m 0.70015,-0.1853 c -0.0856,-0.0679 -0.2256,-0.0679 -0.31118,0 -0.0856,0.0679 -0.0155,0.12354 0.15559,0.12354 0.17114,0 0.24116,-0.0556 0.15559,-0.12354 z m -34.4627,-4.23115 c 0,-0.051 -0.0525,-0.0926 -0.11669,-0.0926 -0.0642,0 -0.11669,0.0417 -0.11669,0.0926 0,0.051 0.0525,0.0927 0.11669,0.0927 0.0642,0 0.11669,-0.0417 0.11669,-0.0927 z m -59.27896,-3.15019 c 0,-0.051 0.0525,-0.0927 0.11669,-0.0927 0.0642,0 0.11669,0.0417 0.11669,0.0927 0,0.051 -0.0525,0.0927 -0.11669,0.0927 -0.0642,0 -0.11669,-0.0417 -0.11669,-0.0927 z m 47.14311,-22.79258 c 0,-0.051 0.0525,-0.0927 0.11669,-0.0927 0.0642,0 0.11669,0.0417 0.11669,0.0927 0,0.051 -0.0525,0.0927 -0.11669,0.0927 -0.0642,0 -0.11669,-0.0417 -0.11669,-0.0927 z"
     id="path5126"
     inkscape:connector-curvature="0" />
  <path
     style="fill:#000000;stroke:#000000;stroke-width:0.51174295;stroke-linecap:round;stroke-linejoin:round;stroke-miterlimit:10"
     d="m 492.68041,79.45495 c 1.16461,-0.83368 3.40052,-3.3252 4.96868,-5.536719 2.76753,-3.902939 5.09453,-5.488001 5.9795,-4.073002 0.18819,0.300904 0.81623,0.288523 1.67188,-0.03294 0.80683,-0.303136 4.38845,-0.419358 8.70872,-0.282603 4.03605,0.127763 7.61344,0.236132 7.94976,0.240825 0.33633,0.0045 0.61902,0.409145 0.62823,0.898782 0.14801,7.872937 0.14722,7.871747 3.15236,4.749987 1.05386,-1.09476 2.46584,-2.967175 3.13773,-4.160916 l 1.22163,-2.170426 7.20706,-1.592457 c 10.82577,-2.392022 19.21461,-5.443921 20.5003,-7.458096 0.94226,-1.476165 0.0136,-2.627022 -1.84707,-2.288931 l -1.66514,0.30257 1.41568,-0.765505 c 1.8312,-0.990198 1.80752,-1.131195 -0.71607,-4.263273 -6.71689,-8.336479 -16.69084,-13.278541 -29.36341,-14.549479 l -3.43908,-0.344901 -0.34074,-1.993006 c -0.3167,-1.852429 -3.84911,-6.522877 -3.84911,-5.089182 0,0.318925 -0.46331,0.57987 -1.02958,0.57987 -0.59887,0 -1.02958,0.33914 -1.02958,0.810698 0,0.445881 -0.41452,0.917815 -0.92116,1.048738 -0.50663,0.130924 -1.14368,0.73801 -1.41567,1.349077 -0.61982,1.392545 -2.33977,2.178737 -5.64243,2.579151 l -2.57395,0.312064 -2.92109,-3.739495 c -2.73556,-3.501984 -6.94187,-6.938655 -8.49255,-6.938655 -0.83234,0 -0.87032,-0.375087 0.35229,3.479143 1.96382,6.19089 1.40676,6.881589 -8.46832,10.499845 -3.4031,1.246902 -15.51305,7.310251 -19.33701,9.68188 -4.9892,3.0943 -6.51553,2.579374 -13.59707,-4.587165 -6.31566,-6.391463 -8.98064,-8.39072 -11.18472,-8.39072 -1.5568,0 -1.94561,0.692397 -0.77137,1.373685 0.6518,0.378165 4.94472,7.462426 4.97526,8.210241 0.008,0.184791 1.04999,1.692172 2.31655,3.349739 2.81543,3.684579 2.83355,4.220331 0.25685,7.592872 -1.1253,1.472847 -3.01109,4.725147 -4.19066,7.227337 -1.17956,2.502184 -2.5912,5.178964 -3.13696,5.948393 -0.81497,1.148955 -0.85403,1.398962 -0.21858,1.398962 2.68107,0 7.20198,-3.829919 13.25339,-11.227707 4.97945,-6.087329 7.53124,-6.968293 11.88541,-4.103244 2.88907,1.901011 5.86173,3.526834 14.31124,7.827192 10.33677,5.260873 12.23813,7.875336 9.57041,13.159771 -1.51518,3.00142 -0.60857,3.32774 2.68839,0.96763 z m 60.49826,-21.206754 c 0.18876,-0.186532 0.49763,-0.186532 0.68639,0 0.18876,0.186527 0.0343,0.339141 -0.34319,0.339141 -0.37752,0 -0.53196,-0.152614 -0.3432,-0.339141 z"
     id="path5241"
     inkscape:connector-curvature="0" />
  <path
     style="fill:#000000;stroke:#000000;stroke-width:0.59923899;stroke-linecap:round;stroke-linejoin:round;stroke-miterlimit:10"
     d="m 504.21371,288.73822 c 2.30659,-2.24399 4.30042,-4.99585 5.9195,-8.17002 1.34277,-2.63247 2.62815,-4.82522 2.85638,-4.87278 0.22823,-0.0476 2.55104,-0.15082 5.16177,-0.22945 2.61074,-0.0787 7.93254,-0.33136 11.8262,-0.5616 6.40368,-0.37865 7.00537,-0.3276 6.30364,0.53479 -1.04536,1.28472 0.91072,10.68814 2.12451,10.21308 1.18814,-0.46503 4.20609,-5.42454 5.24816,-8.62453 l 0.93424,-2.86883 6.36217,-1.05437 c 15.96398,-2.64563 26.50831,-6.28071 26.12786,-9.0074 -0.19257,-1.3801 -1.41314,-1.62092 -3.74522,-0.73896 -0.65269,0.24683 -0.31025,-0.12623 0.76095,-0.82903 2.54713,-1.67112 2.54675,-1.67177 -7.13286,-11.91151 -9.80921,-10.37684 -14.24418,-12.72215 -27.05007,-14.30475 -1.11063,-0.13725 -1.61522,-0.88045 -2.57673,-3.79513 -1.21284,-3.67656 -5.18788,-8.63606 -5.69011,-7.09932 -0.13268,0.40602 -0.61951,0.7382 -1.08182,0.7382 -0.46233,0 -0.84059,0.44536 -0.84059,0.98967 0,2.39283 -6.04423,6.63481 -10.08695,7.07927 l -3.26343,0.35878 -2.3734,-3.37127 c -1.30537,-1.8542 -4.32233,-5.26021 -6.70436,-7.56892 -6.8704,-6.65891 -9.45185,-7.21308 -5.9585,-1.27913 4.12219,7.0021 4.40798,9.06549 1.62314,11.7188 -1.01354,0.96568 -2.08403,1.75578 -2.37889,1.75578 -2.48518,0 -22.50664,11.62545 -27.52254,15.98094 -0.97903,0.85013 -2.10254,1.82337 -2.49669,2.16276 -2.09234,1.80163 -3.85137,0.58535 -8.60397,-5.94924 -6.34619,-8.72568 -12.22136,-14.01002 -15.57645,-14.01002 -1.25566,0 -1.15516,0.47059 0.60245,2.82089 0.83384,1.11505 2.31703,3.8641 3.29598,6.10899 0.97892,2.2449 2.57005,5.71563 3.53582,7.71274 2.2275,4.60624 2.28486,7.67497 0.20192,10.80145 -0.84543,1.26896 -2.70531,5.05211 -4.13307,8.40698 -1.42778,3.35488 -3.31992,6.87052 -4.20479,7.81253 -2.13183,2.26955 -1.50503,2.70291 1.77134,1.22471 3.50413,-1.58097 7.16372,-5.08242 12.72514,-12.17521 5.7209,-7.29619 8.55426,-9.43394 10.42276,-7.86389 7.27839,6.11585 13.63845,10.28835 22.63347,14.84862 9.94032,5.03953 10.86256,6.67482 7.77429,13.78518 -2.54898,5.86869 -1.83836,6.14135 3.20875,1.2312 z"
     id="path5305"
     inkscape:connector-curvature="0" />
</svg>
